<svg width="922" height="920" viewBox="0 0 922 920" fill="none" xmlns="http://www.w3.org/2000/svg">
<path fill-rule="evenodd" clip-rule="evenodd" d="M427.187 0.748889C423.861 1.27101 417.652 2.86073 413.389 4.28065C409.125 5.70057 402.056 7.67127 397.677 8.66033C369.563 15.0086 340.549 23.5939 326.035 29.8583C323.7 30.8665 319.052 32.5814 315.707 33.6692C305.128 37.1086 275.279 52.3404 253.862 65.2269C250.36 67.3345 241.362 73.3834 233.869 78.6684C226.375 83.9543 219.211 88.9835 217.949 89.8452C216.686 90.7058 207.339 97.608 197.178 105.183C183.222 115.585 174.106 123.51 159.913 137.576C149.58 147.818 139.744 158.071 138.056 160.362C136.37 162.652 133.794 165.995 132.332 167.79C127.029 174.306 123.109 179.728 116.929 189.095C109.928 199.706 101.081 210.174 82.3982 229.952C75.5057 237.248 67.3756 246.561 64.3316 250.646C61.2866 254.732 57.5208 259.508 55.9628 261.259C54.4047 263.01 50.329 268.979 46.9072 274.524C43.4853 280.069 36.9261 290.272 32.3314 297.196C27.7367 304.121 22.1465 313.433 19.9081 317.89C14.5185 328.618 7.01779 351.895 6.52426 359.422C6.28545 363.061 4.81227 371.963 3.67024 376.667C2.48257 381.564 0.726008 383.515 0.726008 379.939C0.726008 378.967 0.450049 378.446 0.113595 378.783C-0.22392 379.119 0.216553 383.378 1.09218 388.246C1.96781 393.113 3.00582 401.394 3.39853 406.647C3.79123 411.9 5.71655 425.032 7.67584 435.83C13.1907 466.216 14.4781 478.714 15.6138 512.908C16.1923 530.342 17.1273 550.337 17.692 557.341C18.2566 564.345 18.7576 575.09 18.8053 581.218C18.9051 594.129 20.4356 600.501 27.7283 618.361C35.0283 636.242 34.5327 635.204 34.6176 632.772C34.6579 631.65 35.4593 629.883 36.3986 628.844C37.9269 627.156 38.3578 627.12 40.471 628.503C41.7712 629.355 44.4013 632.469 46.316 635.424C50.4532 641.808 72.4957 665.866 90.368 683.503C131.899 724.487 179.01 756.877 221.49 773.651C289.711 800.59 298.601 803.128 348.854 810.021C369.069 812.794 400.58 812.614 419.03 809.622C457.966 803.306 481.672 796.115 509.296 782.243C528.338 772.679 559.205 753.372 577.153 739.798C582.755 735.561 592.164 729.74 598.061 726.863L608.784 721.632L606.183 726.07C603.652 730.388 602.283 736.594 604.66 732.974C605.565 731.596 605.838 731.588 606.689 732.911C607.34 733.922 607.106 735.54 605.998 737.686C602.315 744.829 589.718 762.552 583.702 769.055C580.192 772.849 574.823 778.819 571.769 782.321C559.456 796.442 535.153 818.391 517.683 831.166C497.921 845.616 464.61 863.516 442.786 871.411C427.93 876.785 427.396 877.047 427.396 878.978C427.396 880.474 428.549 880.628 436.152 880.142C449.852 879.268 464.125 877.507 475.688 875.266C481.525 874.135 490.6 872.409 495.854 871.431C501.108 870.453 509.313 868.534 514.088 867.165C520.726 865.263 525.865 864.619 535.905 864.431C543.128 864.295 549.609 864.537 550.307 864.968C551.005 865.4 551.576 867.108 551.576 868.766C551.576 874.496 532.134 892.855 508.26 909.668C503.288 913.17 499.101 916.871 498.957 917.892C498.632 920.199 498.351 920.218 508.59 917.208C538.979 908.271 599.665 878.719 627.008 859.542C629.594 857.728 638.157 852.069 646.037 846.965C667.322 833.182 677.565 826.386 685.839 820.558C694.765 814.27 723.902 791.217 724.401 790.047C724.597 789.591 725.296 789.219 725.958 789.219C727.91 789.219 754.084 761.926 769.453 743.862C783.131 727.787 788.669 720.589 808.427 693.196C813.388 686.316 823.1 672.992 830.007 663.585C848.881 637.886 850.534 635.136 867.128 601.899C895.567 544.934 904.014 521.408 912.467 475.626C919.088 439.766 919.111 439.549 917.34 431.055C916.488 426.969 915.542 420.809 915.237 417.364C914.353 407.368 916.445 382.592 919.37 368.393C921.89 356.164 921.998 354.402 921.049 341.186C919.144 314.668 912.815 293.873 900.514 273.709C896.858 267.716 890.33 256.971 886.008 249.831C870.138 223.615 852.647 200.055 830.699 175.326C814.768 157.376 808.958 149.548 807.313 143.812C806.758 141.876 806.248 131.216 806.18 120.123C806.112 109.029 805.753 96.8482 805.384 93.0543C804.726 86.2996 804.635 86.133 800.997 85.006C798.476 84.226 790.629 84.1114 776.586 84.6515C725.335 86.6212 711.462 85.7945 688.492 79.4016C684.114 78.1823 679.434 77.1741 678.094 77.1614C676.752 77.1476 669.827 75.4178 662.704 73.3187C644.317 67.899 640.166 67.0193 621.095 64.4989C611.755 63.2636 598.86 61.5593 592.438 60.7092C586.017 59.8592 579.808 59.2617 578.641 59.3816C577.473 59.5015 568.16 59.1959 557.944 58.7024C537.52 57.7155 518.716 58.7831 493.731 62.3467C485.559 63.513 474.215 64.7631 468.524 65.125C459.467 65.7012 458.175 65.5707 458.175 64.0839C458.175 63.149 459.012 61.8522 460.033 61.2006C461.522 60.2518 461.077 60.1277 457.787 60.5713C453.225 61.1857 449.957 59.2468 452.043 57.1615C452.882 56.3221 452.809 55.5262 451.777 54.2835C450.886 53.2095 450.743 52.2979 451.395 51.8512C451.97 51.4575 454.566 49.6438 457.165 47.8217C475.418 35.0169 509.324 21.5861 542.414 14.0524C544.088 13.6714 545.275 13.1769 545.052 12.9541C544.135 12.0361 511.033 3.88269 501.691 2.27387C490.011 0.26179 437.171 -0.819603 427.187 0.748889ZM471.973 146.142C525.02 152.82 563.001 164.566 597.48 184.955C600.837 186.941 606.568 190.327 610.216 192.482C629.299 203.751 651.72 220.425 655.282 225.995C655.744 226.716 658.088 228.64 660.494 230.271C667.923 235.305 693.002 264.728 704.548 281.953C714.715 297.121 728.502 325.634 735.592 346.157C738.819 355.496 742.186 365.136 743.073 367.579C743.96 370.022 746.164 380.767 747.968 391.456C753.716 425.509 754.24 460.725 749.413 488.834C747.004 502.873 743.269 518.22 740.47 525.58C739.856 527.195 739.132 533.073 738.861 538.643C738.504 545.975 737.944 549.008 736.834 549.63C735.99 550.102 733.999 552.878 732.408 555.801C730.809 558.739 729.201 560.604 728.811 559.973C727.747 558.25 726.744 559.893 717.633 578.29C709.742 594.221 704.329 602.665 702.9 601.269C702.538 600.916 702.956 595.901 703.83 590.126C704.703 584.351 705.977 569.12 706.661 556.279C710.754 479.387 694.306 430.302 646.579 376.982C638.079 367.487 623.425 354.615 607.448 342.611C592.686 331.518 591.156 331.174 598.244 340.538C600.561 343.598 602.766 347.508 603.143 349.225C603.52 350.942 604.28 352.864 604.832 353.496C605.821 354.632 615.707 370.026 622.426 380.897C638.437 406.798 647.127 439.306 644.011 461.645C642.885 469.718 638.3 485.324 636.52 487.14C634.181 489.527 630.852 485.874 622.298 471.528C617.331 463.197 612.643 454.98 611.88 453.268C611.117 451.558 608.703 447.769 606.512 444.851C604.322 441.932 602.529 439.263 602.526 438.919C602.516 437.603 585.645 413.131 576.518 401.195C563.94 384.746 559.464 379.964 547.692 370.4C530.798 356.675 514.223 351.888 491.369 354.139C473.886 355.862 447.998 363.856 442.079 369.362L439.644 371.626L446.522 372.35C452.815 373.012 464.328 376.216 479.423 381.507C484.483 383.281 496.368 390.021 500.32 393.36C501.025 393.955 501.894 394.443 502.252 394.443C502.608 394.443 504.905 395.821 507.356 397.507C521.088 406.954 530.604 419.415 534.462 433.004C537.015 441.996 536.525 444.32 532.079 444.32C530.84 444.32 526.18 445.533 521.727 447.017C510.384 450.794 497.13 460.313 478.387 478.142C473.906 482.404 462.712 489.79 456.053 492.878C453.426 494.096 446.5 497.37 440.663 500.152C434.825 502.935 429.333 505.241 428.457 505.276C425.887 505.38 425.927 511.033 428.532 516.099C431.442 521.754 438.869 529.438 443.592 531.679C448.224 533.877 464.877 535.916 470.912 535.023C478.364 533.922 493.068 528.31 503.121 522.731C506.159 521.045 506.47 522.389 504.494 528.656C501.606 537.815 496.367 543.646 479.195 556.806C474.727 560.229 464.946 564.251 453.93 567.192C441.484 570.516 425.352 570.886 410.735 568.185C399.856 566.174 394.319 564.019 389.982 560.107C387.102 557.508 385.818 558.227 388.39 560.999C389.469 562.16 389.419 562.268 388.125 561.577C379.34 556.884 363.413 542.466 356.293 532.758C354.511 530.329 350.18 522.45 346.67 515.248C343.161 508.048 339.564 500.963 338.677 499.504C335.144 493.694 333.848 489.337 332.265 477.954C330.892 468.078 330.018 465.092 327.085 460.239C318.437 445.933 316.518 422.609 322.183 400.643C328.974 374.316 343.843 352.475 366.367 335.743C376.416 328.278 400.487 316.365 414.659 311.841C420.205 310.071 427.718 307.126 431.356 305.296C438.481 301.713 445.848 294.242 445.094 291.361C444.455 288.916 457.805 283.826 476.749 279.29C503.652 272.848 512.511 271.927 547.861 271.897C578.439 271.872 579.935 271.965 585.588 274.253C594.483 277.855 609.115 287.443 621.366 297.701C640.251 313.513 658.805 327.789 664.339 330.766L667.795 332.625L664.059 325.065C653.22 303.126 629.724 273.592 612.173 259.845C610.184 258.288 607.319 256.025 605.805 254.816C594.055 245.437 569.167 232.118 555.29 227.784C551.204 226.509 541.652 223.179 534.063 220.386C488.596 203.649 441.226 195.732 387.594 195.909C364.476 195.985 323.183 199.021 321.431 200.774C321.045 201.16 320.713 204.183 320.695 207.49C320.674 211.206 319.882 215.102 318.62 217.686C315.91 223.24 299.358 239.825 288.887 247.479C282.274 252.313 274.525 259.839 272.874 263.03C272.05 264.624 270.857 268.346 270.223 271.299C269.202 276.06 269.387 277.682 271.847 285.576C274.814 295.094 275.43 295.901 282.85 299.993C285.954 301.705 288.4 304.086 289.745 306.704C291.813 310.729 291.813 310.814 289.761 317.85C288.361 322.646 285.053 328.97 279.533 337.398C275.046 344.251 271.375 350.104 271.375 350.406C271.375 350.708 270.45 352.979 269.321 355.454C262.29 370.855 257.588 391.65 257.58 407.377C257.575 417.465 262.213 434.544 268.094 446.098C276.657 462.919 279.64 476.227 277.105 486.299C276.361 489.251 275.224 495.937 274.578 501.156C272.06 521.464 268.447 532.765 256.802 556.762C241 589.323 240.3 591.219 240.926 599.79C241.919 613.371 250.228 632.098 258.901 640.3C271.431 652.148 284.447 657.486 320.83 665.699C335.633 669.041 348.099 672.403 349.164 673.34C350.978 674.938 350.955 675.076 348.634 676.356C344.637 678.56 332.334 680.855 315.21 682.587C296.187 684.512 279.194 683.557 257.612 679.349C243.861 676.668 220.328 669.321 211.938 665.089C203.327 660.745 183.873 647.408 174.987 639.754C163.606 629.954 157.388 622.717 151.005 611.848C148.139 606.967 144.276 600.586 142.421 597.667C136.387 588.178 125.967 565.4 125.967 561.699C125.967 560.399 124.743 556.259 123.246 552.502C119.423 542.9 117.977 528.965 118.191 503.749C118.459 472.017 119.081 467.115 124.58 453.395C130.941 437.523 134.542 431.586 140.322 427.435C145.044 424.044 145.23 424.002 145.796 426.164C146.117 427.395 146.865 428.402 147.455 428.402C148.046 428.402 150.498 430.155 152.904 432.298C156.871 435.83 160.869 442.056 164.204 449.892C164.887 451.496 166.166 452.81 167.047 452.81C167.926 452.81 169.569 453.983 170.697 455.414C171.884 456.924 173.399 457.769 174.299 457.424C175.153 457.096 175.852 457.385 175.852 458.065C175.852 458.745 176.289 459.033 176.823 458.703C177.357 458.373 178.274 459.419 178.862 461.028C179.532 462.867 179.96 463.263 180.013 462.096C180.059 461.075 180.472 460.239 180.929 460.239C182.085 460.239 185.667 466.489 186.049 469.172C186.222 470.387 186.809 473.992 187.354 477.184C187.898 480.375 188.097 483.631 187.794 484.419C186.878 486.806 189.635 490.819 191.803 490.252C193.166 489.896 194.241 490.728 195.456 493.078C197.121 496.297 197.383 496.397 203.224 496.062C208.03 495.786 209.345 495.326 209.637 493.811C210.333 490.192 208.774 487.084 202.144 478.878C198.482 474.346 193.981 468.772 192.14 466.49C186.455 459.442 174.946 426.931 172.46 410.892C170.83 400.382 170.81 359.937 172.43 348.279C174.217 335.404 181.623 312.777 189.108 297.322C201.834 271.045 232.782 233.311 259.7 211.253C289.474 186.853 313.65 172.309 339.476 163.259C355.984 157.474 385.306 150.658 413.598 146.029C423.393 144.426 429.472 144.128 444.378 144.52C454.593 144.787 467.011 145.517 471.973 146.142ZM819.25 223.925C828.051 235.08 830.059 238.677 829.126 241.616C827.46 246.864 818.855 244.756 810.438 237.036C806.835 233.73 806.569 233.031 805.868 224.998C805.459 220.306 805.436 215.224 805.818 213.703C806.486 211.04 806.607 211 809.092 212.628C810.511 213.558 815.082 218.641 819.25 223.925ZM359.468 564.239C359.468 565.406 358.991 566.361 358.407 566.361C357.823 566.361 357.345 565.406 357.345 564.239C357.345 563.071 357.823 562.116 358.407 562.116C358.991 562.116 359.468 563.071 359.468 564.239Z" fill="white" fill-opacity="0.19"/>
</svg>
